<!DOCTYPE svg PUBLIC "-//W3C//DTD SVG 1.1//EN" "http://www.w3.org/Graphics/SVG/1.1/DTD/svg11.dtd">
<!-- Uploaded to: SVG Repo, www.svgrepo.com, Transformed by: SVG Repo Mixer Tools -->
<svg fill="#f7f7f7" height="800px" width="800px" version="1.1" xmlns="http://www.w3.org/2000/svg" viewBox="0 0 512 512" xmlns:xlink="http://www.w3.org/1999/xlink" enable-background="new 0 0 512 512" stroke="#f7f7f7">
<g id="SVGRepo_bgCarrier" stroke-width="0"/>
<g id="SVGRepo_tracerCarrier" stroke-linecap="round" stroke-linejoin="round"/>
<g id="SVGRepo_iconCarrier"> <g> <g> <path d="m317.3,145h-122.6c-51.4,0-93.2,41.8-93.2,93.2v169.7c0,51.4 41.8,93.2 93.2,93.2h122.5c51.4,0 93.2-41.8 93.2-93.2v-169.7c0-51.4-41.8-93.2-93.1-93.2zm52.3,262.8c0,28.8-23.5,52.3-52.3,52.3h-122.6c-28.8,0-52.3-23.5-52.3-52.3v-169.6c0-28.8 23.5-52.3 52.3-52.3h122.5c28.8,0 52.3,23.5 52.3,52.3v169.6z"/> <path d="m177,128.8h158c11.3,0 20.4-9.1 20.4-20.4v-77c0-11.3-9.1-20.4-20.4-20.4h-158c-11.3,0-20.4,9.1-20.4,20.4v76.9c0,11.3 9.2,20.5 20.4,20.5zm20.4-77h117.1v36.1h-117.1v-36.1z"/> </g> </g> </g>
</svg>